<?xml version="1.0" encoding="utf-8"?>
<!-- Generator: Adobe Illustrator 22.1.0, SVG Export Plug-In . SVG Version: 6.00 Build 0)  -->
<svg version="1.1" id="Capa_1" xmlns="http://www.w3.org/2000/svg" xmlns:xlink="http://www.w3.org/1999/xlink" x="0px" y="0px"
	 viewBox="0 0 60 60" style="enable-background:new 0 0 60 60;" xml:space="preserve">
<style type="text/css">
	.st0{fill:url(#SVGID_1_);}
	.st1{fill:url(#SVGID_2_);}
	.st2{fill:url(#SVGID_3_);}
	.st3{fill:url(#SVGID_4_);}
	.st4{fill:url(#SVGID_5_);}
	.st5{fill:url(#SVGID_6_);}
	.st6{fill:url(#SVGID_7_);}
	.st7{fill:url(#SVGID_8_);}
	.st8{fill:url(#SVGID_9_);}
	.st9{fill:url(#SVGID_10_);}
</style>
<g>
	<linearGradient id="SVGID_1_" gradientUnits="userSpaceOnUse" x1="48.3317" y1="-1.7515" x2="11.6683" y2="61.7515">
		<stop  offset="0" style="stop-color:#3FD1FF"/>
		<stop  offset="1" style="stop-color:#0088FF"/>
	</linearGradient>
	<path class="st0" d="M50.6,0H9.4C7.8,0,6.5,1.3,6.5,2.9v54.2c0,1.6,1.3,2.9,2.9,2.9h41.2c1.6,0,2.9-1.3,2.9-2.9V2.9
		C53.5,1.3,52.2,0,50.6,0z M51.5,57.1c0,0.5-0.4,0.9-0.9,0.9H9.4c-0.5,0-0.9-0.4-0.9-0.9V2.9C8.5,2.4,8.9,2,9.4,2h41.2
		c0.5,0,0.9,0.4,0.9,0.9V57.1z"/>
	<linearGradient id="SVGID_2_" gradientUnits="userSpaceOnUse" x1="20.7566" y1="42.9934" x2="13.2434" y2="56.0066">
		<stop  offset="0" style="stop-color:#3FD1FF"/>
		<stop  offset="1" style="stop-color:#0088FF"/>
	</linearGradient>
	<path class="st1" d="M11.5,55h11V44h-11V55z M13.5,46h7v7h-7V46z"/>
	<linearGradient id="SVGID_3_" gradientUnits="userSpaceOnUse" x1="33.7566" y1="42.9934" x2="26.2434" y2="56.0066">
		<stop  offset="0" style="stop-color:#3FD1FF"/>
		<stop  offset="1" style="stop-color:#0088FF"/>
	</linearGradient>
	<path class="st2" d="M24.5,55h11V44h-11V55z M26.5,46h7v7h-7V46z"/>
	<linearGradient id="SVGID_4_" gradientUnits="userSpaceOnUse" x1="49.5712" y1="31.6184" x2="36.4288" y2="54.3816">
		<stop  offset="0" style="stop-color:#3FD1FF"/>
		<stop  offset="1" style="stop-color:#0088FF"/>
	</linearGradient>
	<path class="st3" d="M37.5,55h11V31h-11V55z M39.5,33h7v20h-7V33z"/>
	<linearGradient id="SVGID_5_" gradientUnits="userSpaceOnUse" x1="20.7566" y1="29.9934" x2="13.2434" y2="43.0066">
		<stop  offset="0" style="stop-color:#3FD1FF"/>
		<stop  offset="1" style="stop-color:#0088FF"/>
	</linearGradient>
	<path class="st4" d="M11.5,42h11V31h-11V42z M13.5,33h7v7h-7V33z"/>
	<linearGradient id="SVGID_6_" gradientUnits="userSpaceOnUse" x1="33.7566" y1="29.9934" x2="26.2434" y2="43.0066">
		<stop  offset="0" style="stop-color:#3FD1FF"/>
		<stop  offset="1" style="stop-color:#0088FF"/>
	</linearGradient>
	<path class="st5" d="M24.5,42h11V31h-11V42z M26.5,33h7v7h-7V33z"/>
	<linearGradient id="SVGID_7_" gradientUnits="userSpaceOnUse" x1="20.7566" y1="16.9934" x2="13.2434" y2="30.0066">
		<stop  offset="0" style="stop-color:#3FD1FF"/>
		<stop  offset="1" style="stop-color:#0088FF"/>
	</linearGradient>
	<path class="st6" d="M11.5,29h11V18h-11V29z M13.5,20h7v7h-7V20z"/>
	<linearGradient id="SVGID_8_" gradientUnits="userSpaceOnUse" x1="33.7566" y1="16.9934" x2="26.2434" y2="30.0066">
		<stop  offset="0" style="stop-color:#3FD1FF"/>
		<stop  offset="1" style="stop-color:#0088FF"/>
	</linearGradient>
	<path class="st7" d="M24.5,29h11V18h-11V29z M26.5,20h7v7h-7V20z"/>
	<linearGradient id="SVGID_9_" gradientUnits="userSpaceOnUse" x1="46.7566" y1="16.9934" x2="39.2434" y2="30.0066">
		<stop  offset="0" style="stop-color:#3FD1FF"/>
		<stop  offset="1" style="stop-color:#0088FF"/>
	</linearGradient>
	<path class="st8" d="M37.5,29h11V18h-11V29z M39.5,20h7v7h-7V20z"/>
	<linearGradient id="SVGID_10_" gradientUnits="userSpaceOnUse" x1="36.7901" y1="-1.7607" x2="23.2099" y2="21.7607">
		<stop  offset="0" style="stop-color:#3FD1FF"/>
		<stop  offset="1" style="stop-color:#0088FF"/>
	</linearGradient>
	<path class="st9" d="M11.5,15h37V5h-37V15z M13.5,7h33v6h-33V7z"/>
</g>
</svg>
