<?xml version="1.0" encoding="utf-8"?>
<!-- Generator: Adobe Illustrator 22.1.0, SVG Export Plug-In . SVG Version: 6.00 Build 0)  -->
<svg version="1.1" id="Capa_1" xmlns="http://www.w3.org/2000/svg" xmlns:xlink="http://www.w3.org/1999/xlink" x="0px" y="0px"
	 viewBox="0 0 43.4 43.4" style="enable-background:new 0 0 43.4 43.4;" xml:space="preserve">
<style type="text/css">
	.st0{fill:url(#SVGID_1_);}
	.st1{fill:url(#SVGID_2_);}
	.st2{fill:url(#SVGID_3_);}
	.st3{fill:url(#SVGID_4_);}
	.st4{fill:url(#SVGID_5_);}
	.st5{fill:url(#SVGID_6_);}
	.st6{fill:url(#SVGID_7_);}
	.st7{fill:url(#SVGID_8_);}
	.st8{fill:url(#SVGID_9_);}
	.st9{fill:url(#SVGID_10_);}
	.st10{fill:url(#SVGID_11_);}
</style>
<g>
	<linearGradient id="SVGID_1_" gradientUnits="userSpaceOnUse" x1="14.3463" y1="11.9064" x2="-1.3133" y2="39.0296">
		<stop  offset="0" style="stop-color:#3FD1FF"/>
		<stop  offset="1" style="stop-color:#0088FF"/>
	</linearGradient>
	<path class="st0" d="M12.4,10.9H0.6c-0.3,0-0.6,0.3-0.6,0.6v27.9c0,0.3,0.3,0.6,0.6,0.6h11.8c0.3,0,0.6-0.3,0.6-0.6V11.5
		C13,11.2,12.8,10.9,12.4,10.9z M11.8,38.8H1.3V12.1h10.5V38.8z"/>
	<linearGradient id="SVGID_2_" gradientUnits="userSpaceOnUse" x1="36.2832" y1="7.9938" x2="17.0739" y2="41.2653">
		<stop  offset="0" style="stop-color:#3FD1FF"/>
		<stop  offset="1" style="stop-color:#0088FF"/>
	</linearGradient>
	<path class="st1" d="M37.2,11.9c-0.1-0.3-0.4-0.5-0.8-0.5l-8.7,2.1c-0.1,0-0.1,0-0.2,0.1V3.3c0-0.3-0.3-0.6-0.6-0.6H15.1
		c-0.3,0-0.6,0.3-0.6,0.6v36.1c0,0.3,0.3,0.6,0.6,0.6h11.8c0.3,0,0.6-0.3,0.6-0.6v-24l5.9,24.8c0,0.2,0.1,0.3,0.3,0.4
		c0.1,0.1,0.2,0.1,0.3,0.1c0,0,0.1,0,0.1,0l8.7-2.1c0.3-0.1,0.5-0.4,0.5-0.8L37.2,11.9z M26.3,38.8H15.8V3.9h10.5V38.8z M34.5,39.4
		l-5.9-24.8l7.5-1.8L42,37.6L34.5,39.4z"/>
	<linearGradient id="SVGID_3_" gradientUnits="userSpaceOnUse" x1="8.5361" y1="22.3521" x2="4.497" y2="29.3482">
		<stop  offset="0" style="stop-color:#3FD1FF"/>
		<stop  offset="1" style="stop-color:#0088FF"/>
	</linearGradient>
	<path class="st2" d="M6.5,29.9c2.2,0,4-1.8,4-4c0-2.2-1.8-4-4-4c-2.2,0-4,1.8-4,4C2.5,28.1,4.3,29.9,6.5,29.9z M6.5,23.1
		c1.5,0,2.8,1.3,2.8,2.8c0,1.5-1.3,2.8-2.8,2.8s-2.8-1.3-2.8-2.8C3.7,24.3,5,23.1,6.5,23.1z"/>
	<linearGradient id="SVGID_4_" gradientUnits="userSpaceOnUse" x1="8.238" y1="33.3722" x2="4.796" y2="39.3338">
		<stop  offset="0" style="stop-color:#3FD1FF"/>
		<stop  offset="1" style="stop-color:#0088FF"/>
	</linearGradient>
	<path class="st3" d="M3.1,38.3h6.8c0.3,0,0.6-0.3,0.6-0.6v-2.6c0-0.3-0.3-0.6-0.6-0.6H3.1c-0.3,0-0.6,0.3-0.6,0.6v2.6
		C2.5,38,2.8,38.3,3.1,38.3z M3.7,35.7h5.6V37H3.7C3.7,37,3.7,35.7,3.7,35.7z"/>
	<linearGradient id="SVGID_5_" gradientUnits="userSpaceOnUse" x1="8.2375" y1="13.139" x2="4.7965" y2="19.099">
		<stop  offset="0" style="stop-color:#3FD1FF"/>
		<stop  offset="1" style="stop-color:#0088FF"/>
	</linearGradient>
	<path class="st4" d="M3.1,18h6.8c0.3,0,0.6-0.3,0.6-0.6v-2.6c0-0.3-0.3-0.6-0.6-0.6H3.1c-0.3,0-0.6,0.3-0.6,0.6v2.6
		C2.5,17.7,2.8,18,3.1,18z M3.7,15.5h5.6v1.3H3.7C3.7,16.8,3.7,15.5,3.7,15.5z"/>
	<linearGradient id="SVGID_6_" gradientUnits="userSpaceOnUse" x1="23.0512" y1="19.5365" x2="19.0127" y2="26.5314">
		<stop  offset="0" style="stop-color:#3FD1FF"/>
		<stop  offset="1" style="stop-color:#0088FF"/>
	</linearGradient>
	<path class="st5" d="M21,27.1c2.2,0,4-1.8,4-4s-1.8-4-4-4s-4,1.8-4,4S18.8,27.1,21,27.1z M21,20.2c1.5,0,2.8,1.3,2.8,2.8
		s-1.3,2.8-2.8,2.8s-2.8-1.3-2.8-2.8S19.5,20.2,21,20.2z"/>
	<linearGradient id="SVGID_7_" gradientUnits="userSpaceOnUse" x1="22.7523" y1="33.3724" x2="19.3107" y2="39.3336">
		<stop  offset="0" style="stop-color:#3FD1FF"/>
		<stop  offset="1" style="stop-color:#0088FF"/>
	</linearGradient>
	<path class="st6" d="M17.6,38.3h6.8c0.3,0,0.6-0.3,0.6-0.6v-2.6c0-0.3-0.3-0.6-0.6-0.6h-6.8c-0.3,0-0.6,0.3-0.6,0.6v2.6
		C17,38,17.3,38.3,17.6,38.3z M18.2,35.7h5.6V37h-5.6V35.7z"/>
	<linearGradient id="SVGID_8_" gradientUnits="userSpaceOnUse" x1="22.7521" y1="4.1743" x2="19.311" y2="10.1345">
		<stop  offset="0" style="stop-color:#3FD1FF"/>
		<stop  offset="1" style="stop-color:#0088FF"/>
	</linearGradient>
	<path class="st7" d="M17.6,9.1h6.8c0.3,0,0.6-0.3,0.6-0.6V5.9c0-0.3-0.3-0.6-0.6-0.6h-6.8c-0.3,0-0.6,0.3-0.6,0.6v2.6
		C17,8.8,17.3,9.1,17.6,9.1z M18.2,6.5h5.6v1.3h-5.6V6.5z"/>
	<linearGradient id="SVGID_9_" gradientUnits="userSpaceOnUse" x1="36.7488" y1="23.6109" x2="33.9075" y2="28.5321">
		<stop  offset="0" style="stop-color:#3FD1FF"/>
		<stop  offset="1" style="stop-color:#0088FF"/>
	</linearGradient>
	<path class="st8" d="M34.7,23.3c-0.7,0.2-1.4,0.6-1.8,1.3c-0.4,0.6-0.5,1.4-0.3,2.1c0.3,1.3,1.4,2.2,2.8,2.2c0.2,0,0.4,0,0.7-0.1
		c1.5-0.4,2.5-1.9,2.1-3.4c-0.3-1.3-1.5-2.2-2.8-2.2C35.1,23.2,34.9,23.2,34.7,23.3z M36.9,25.7c0.1,0.4,0,0.8-0.2,1.2
		c-0.2,0.4-0.6,0.6-1,0.7c-0.1,0-0.2,0-0.4,0c-0.7,0-1.4-0.5-1.6-1.2c-0.1-0.4,0-0.8,0.2-1.2c0.2-0.4,0.6-0.6,1-0.7
		c0.1,0,0.2,0,0.4,0C36.1,24.5,36.7,25,36.9,25.7z"/>
	<linearGradient id="SVGID_10_" gradientUnits="userSpaceOnUse" x1="39.438" y1="33.1369" x2="36.0944" y2="38.9282">
		<stop  offset="0" style="stop-color:#3FD1FF"/>
		<stop  offset="1" style="stop-color:#0088FF"/>
	</linearGradient>
	<path class="st9" d="M34.4,35.1c-0.1,0.1-0.1,0.3-0.1,0.5l0.6,2.5c0,0.2,0.1,0.3,0.3,0.4c0.1,0.1,0.2,0.1,0.3,0.1c0,0,0.1,0,0.1,0
		l5.1-1.2c0.3-0.1,0.5-0.4,0.5-0.8L40.6,34c-0.1-0.3-0.4-0.5-0.8-0.5l-5.1,1.2C34.6,34.8,34.5,34.9,34.4,35.1z M39.5,34.9l0.3,1.3
		L36,37.1l-0.3-1.3L39.5,34.9z"/>
	<linearGradient id="SVGID_11_" gradientUnits="userSpaceOnUse" x1="34.7459" y1="13.7036" x2="31.4025" y2="19.4946">
		<stop  offset="0" style="stop-color:#3FD1FF"/>
		<stop  offset="1" style="stop-color:#0088FF"/>
	</linearGradient>
	<path class="st10" d="M35.2,14.1l-5.1,1.2c-0.2,0-0.3,0.1-0.4,0.3c-0.1,0.1-0.1,0.3-0.1,0.5l0.6,2.5c0.1,0.3,0.3,0.5,0.6,0.5
		c0.1,0,0.1,0,0.1,0l5.1-1.2c0.3-0.1,0.5-0.4,0.5-0.8l-0.6-2.5C35.8,14.3,35.5,14.1,35.2,14.1z M31.3,17.7L31,16.4l3.8-0.9l0.3,1.3
		L31.3,17.7z"/>
</g>
</svg>
