<?xml version="1.0" encoding="utf-8"?>
<!-- Generator: Adobe Illustrator 22.1.0, SVG Export Plug-In . SVG Version: 6.00 Build 0)  -->
<svg version="1.1" id="Capa_1" xmlns="http://www.w3.org/2000/svg" xmlns:xlink="http://www.w3.org/1999/xlink" x="0px" y="0px"
	 viewBox="0 0 297 297" style="enable-background:new 0 0 297 297;" xml:space="preserve">
<style type="text/css">
	.st0{fill:url(#SVGID_1_);}
	.st1{fill:url(#SVGID_2_);}
	.st2{fill:url(#SVGID_3_);}
	.st3{fill:url(#SVGID_4_);}
	.st4{fill:url(#SVGID_5_);}
	.st5{fill:url(#SVGID_6_);}
	.st6{fill:url(#SVGID_7_);}
</style>
<g>
	<linearGradient id="SVGID_1_" gradientUnits="userSpaceOnUse" x1="213.7094" y1="7.7613" x2="42.7166" y2="303.9295">
		<stop  offset="0" style="stop-color:#3FD1FF"/>
		<stop  offset="1" style="stop-color:#0088FF"/>
	</linearGradient>
	<path class="st0" d="M207.7,125.2V10.1c0-5.6-4.5-10.1-10.1-10.1H18.7C13.1,0,8.6,4.5,8.6,10.1v268.3c0,5.6,4.5,10.1,10.1,10.1
		h146.5c11.3,5.4,23.9,8.5,37.3,8.5c47.4,0,86-38.6,86-86C288.4,165.4,252.6,127.9,207.7,125.2z M28.8,20.2h158.7v106.2
		c-40.3,7.1-71,42.3-71,84.6c0,22,8.3,42.1,21.9,57.3H28.8V20.2z M202.4,276.8c-36.3,0-65.8-29.5-65.8-65.8
		c0-36.3,29.5-65.8,65.8-65.8c36.3,0,65.8,29.5,65.8,65.8C268.2,247.3,238.7,276.8,202.4,276.8z"/>
	<linearGradient id="SVGID_2_" gradientUnits="userSpaceOnUse" x1="222.748" y1="175.8183" x2="182.103" y2="246.2177">
		<stop  offset="0" style="stop-color:#3FD1FF"/>
		<stop  offset="1" style="stop-color:#0088FF"/>
	</linearGradient>
	<path class="st1" d="M231.9,181.5c-3.9-3.9-10.3-3.9-14.3,0l-44.7,44.7c-3.9,3.9-3.9,10.3,0,14.3c2,2,4.6,3,7.1,3s5.2-1,7.1-3
		l44.7-44.7C235.9,191.9,235.9,185.5,231.9,181.5z"/>
	<linearGradient id="SVGID_3_" gradientUnits="userSpaceOnUse" x1="184.9785" y1="179.7838" x2="174.8827" y2="197.2703">
		<stop  offset="0" style="stop-color:#3FD1FF"/>
		<stop  offset="1" style="stop-color:#0088FF"/>
	</linearGradient>
	<path class="st2" d="M179.9,198.6c2.7,0,5.3-1.1,7.2-3c1.9-1.9,2.9-4.5,2.9-7.1c0-2.7-1.1-5.3-2.9-7.1c-1.9-1.9-4.5-3-7.2-3
		s-5.3,1.1-7.1,3c-1.9,1.9-3,4.5-3,7.1c0,2.7,1.1,5.3,3,7.1C174.7,197.5,177.3,198.6,179.9,198.6z"/>
	<linearGradient id="SVGID_4_" gradientUnits="userSpaceOnUse" x1="229.9667" y1="224.7644" x2="219.8716" y2="242.2497">
		<stop  offset="0" style="stop-color:#3FD1FF"/>
		<stop  offset="1" style="stop-color:#0088FF"/>
	</linearGradient>
	<path class="st3" d="M224.9,223.4c-2.7,0-5.3,1.1-7.1,3c-1.9,1.9-3,4.5-3,7.1c0,2.7,1.1,5.3,3,7.1c1.9,1.9,4.5,3,7.1,3
		c2.7,0,5.3-1.1,7.1-3c1.9-1.9,3-4.5,3-7.1c0-2.7-1.1-5.3-3-7.1S227.6,223.4,224.9,223.4z"/>
	<linearGradient id="SVGID_5_" gradientUnits="userSpaceOnUse" x1="122.1204" y1="39.5201" x2="94.1307" y2="87.9996">
		<stop  offset="0" style="stop-color:#3FD1FF"/>
		<stop  offset="1" style="stop-color:#0088FF"/>
	</linearGradient>
	<path class="st4" d="M72.4,73.9h71.5c5.6,0,10.1-4.5,10.1-10.1s-4.5-10.1-10.1-10.1H72.4c-5.6,0-10.1,4.5-10.1,10.1
		C62.3,69.3,66.8,73.9,72.4,73.9z"/>
	<linearGradient id="SVGID_6_" gradientUnits="userSpaceOnUse" x1="122.1204" y1="93.1791" x2="94.1308" y2="141.6585">
		<stop  offset="0" style="stop-color:#3FD1FF"/>
		<stop  offset="1" style="stop-color:#0088FF"/>
	</linearGradient>
	<path class="st5" d="M72.4,127.5h71.5c5.6,0,10.1-4.5,10.1-10.1c0-5.6-4.5-10.1-10.1-10.1H72.4c-5.6,0-10.1,4.5-10.1,10.1
		C62.3,123,66.8,127.5,72.4,127.5z"/>
	<linearGradient id="SVGID_7_" gradientUnits="userSpaceOnUse" x1="88.5836" y1="158.4546" x2="74.0084" y2="183.6994">
		<stop  offset="0" style="stop-color:#3FD1FF"/>
		<stop  offset="1" style="stop-color:#0088FF"/>
	</linearGradient>
	<path class="st6" d="M90.2,161H72.4c-5.6,0-10.1,4.5-10.1,10.1s4.5,10.1,10.1,10.1h17.9c5.6,0,10.1-4.5,10.1-10.1
		S95.8,161,90.2,161z"/>
</g>
</svg>
