<?xml version="1.0" encoding="utf-8"?>
<!-- Generator: Adobe Illustrator 22.1.0, SVG Export Plug-In . SVG Version: 6.00 Build 0)  -->
<svg version="1.1" id="Capa_1" xmlns="http://www.w3.org/2000/svg" xmlns:xlink="http://www.w3.org/1999/xlink" x="0px" y="0px"
	 viewBox="0 0 512 512" style="enable-background:new 0 0 512 512;" xml:space="preserve">
<style type="text/css">
	.st0{fill:url(#SVGID_1_);}
	.st1{fill:url(#SVGID_2_);}
</style>
<g>
	<g>
		<linearGradient id="SVGID_1_" gradientUnits="userSpaceOnUse" x1="420.9107" y1="77.9547" x2="145.1401" y2="555.6033">
			<stop  offset="0" style="stop-color:#3FD1FF"/>
			<stop  offset="1" style="stop-color:#0088FF"/>
		</linearGradient>
		<path class="st0" d="M440.4,497h-36.6l4-144.5c0.6-22.6-12.3-43.1-33-52.3l-42.7-19c-0.3-0.1-0.5-0.2-0.8-0.3l-6-5.1
			c30.4-9.2,53.2-20.5,54.3-21.1c3.7-1.8,5.2-6.3,3.4-10c-0.2-0.3-15.3-31.9-15.3-100.9v-32.1C367.7,50.1,317.6,0,256,0
			S144.3,50.1,144.3,111.7v32.1c0,69-15.1,100.6-15.2,100.9c-1.9,3.7-0.4,8.2,3.4,10.1c1.1,0.5,23.9,11.8,54.3,21.1l-6.8,5.8
			l-41.8,18.6c-20.7,9.2-33.6,29.7-33,52.3l4,144.5H71.6c-4.1,0-7.5,3.4-7.5,7.5s3.4,7.5,7.5,7.5h368.7c4.1,0,7.5-3.4,7.5-7.5
			S444.5,497,440.4,497z M159.3,111.7c0-53.3,43.4-96.7,96.7-96.7s96.7,43.4,96.7,96.7v32.1c0,54.8,9.1,87.1,13.9,100.4
			c-10,4.5-30.8,13.3-55,19.9l-2.7-2.3c-1.5-1.3-3.4-1.9-5.4-1.8v-18.6c14-9.1,25.5-22.2,32.5-38.2c4.1-9.3,6.4-19.7,6.7-30
			c0.9-33.8-28.2-42.4-58.9-51.5c-25.7-7.6-54.9-16.2-78.8-39.5c-3-2.9-7.7-2.8-10.6,0.1c-2.9,3-2.8,7.7,0.1,10.6
			c26.6,25.9,59,35.4,85,43.1c32.9,9.7,48.7,15.3,48.1,36.7c-0.2,8.4-2.1,16.8-5.4,24.3c-11.6,26.3-37.7,43.3-66.4,43.3
			c-35,0-65-25-71.4-59.4c-1.4-7.7-8.5-13.3-16.2-12.7c-0.8,0.1-1.7,0-2.6-0.2c-3.7-0.9-6.6-4.9-6.6-9.3v-6.2c0-4.6,3-8.5,6.9-9.2
			c3.3-0.6,6.4,0.6,8.4,3.2c1.4,1.9,3.3,3.2,5.5,3.9c3.2,1,6.7,0.4,9.4-1.5c6.6-4.6,12.1-10.5,16.5-17.5c2.2-3.5,1.2-8.1-2.3-10.3
			c-3.5-2.2-8.1-1.2-10.4,2.3c-2.7,4.2-5.9,7.9-9.6,11c-5.4-4.9-12.8-7.2-20.1-5.9c-1.5,0.3-3,0.7-4.3,1.2L159.3,111.7L159.3,111.7z
			 M223.4,276.3v-27.1c10.1,4.1,21.1,6.3,32.6,6.3c11.4,0,22.4-2.2,32.6-6.3v27.1l-22.6,31.5c0,0,0,0.1-0.1,0.1c0,0-0.1,0.1-0.1,0.1
			l-9.4,14c-0.1,0.1-0.2,0.2-0.4,0.2s-0.4-0.1-0.4-0.2l-9.4-14c0,0-0.1-0.1-0.1-0.1c0,0,0-0.1-0.1-0.1L223.4,276.3z M229.6,310.5
			l-10.8,8.1c-2,1.5-4.6,2.1-7.1,1.5c-2.5-0.6-4.5-2.2-5.7-4.5L193.2,290l13.4-11.4L229.6,310.5z M305.4,278.5l13.4,11.4L306,315.6
			c-1.1,2.3-3.2,3.9-5.7,4.5c-2.5,0.6-5,0-7.1-1.5l-10.8-8.1L305.4,278.5z M145.4,244.2c3.6-10,9.6-30.6,12.4-63.2
			c1.5,0.7,3,1.3,4.6,1.7c2.3,0.6,4.7,0.7,7,0.6c0.2,0.1,0.4,0.3,0.5,0.5c4.5,24.4,18.9,44.9,38.5,57.7v18.6c-2-0.1-3.9,0.5-5.4,1.8
			l-2.7,2.3C176.2,257.5,155.4,248.7,145.4,244.2z M144.2,313.9l36.2-16.1l12.3,24.5c3.1,6.3,8.8,10.8,15.6,12.4
			c1.8,0.4,3.6,0.6,5.4,0.6c5,0,10-1.6,14.1-4.7l10.4-7.8l5,7.4c2.9,4.3,7.7,6.9,12.9,6.9c5.2,0,10-2.6,12.9-6.9l5-7.4l10.4,7.8
			c4.1,3.1,9.1,4.7,14.1,4.7c1.8,0,3.6-0.2,5.4-0.6c6.8-1.6,12.5-6.1,15.6-12.4l12.4-24.8l36.9,16.4c2.9,1.3,5.6,2.9,8,4.7
			l-27.3,34.1H163.4l-27.3-34.1C138.6,316.8,141.3,315.2,144.2,313.9z M137.2,377.5l6.2,112.2c0.1,2.5,0.7,5,1.6,7.2h-20.9l-4-144.9
			c-0.2-8,1.9-15.7,5.9-22.2l21.5,26.9c-1.4,0.9-2.7,2-3.9,3.3C139.2,364.7,136.9,371.1,137.2,377.5z M359.8,376.7l-6.2,112.2
			c-0.3,4.5-4,8.1-8.5,8.1H167v0c-4.5,0-8.3-3.5-8.5-8.1l-6.2-112.2c-0.1-2.4,0.7-4.6,2.3-6.3s3.8-2.7,6.2-2.7h190.6
			c2.4,0,4.6,0.9,6.2,2.7S359.9,374.4,359.8,376.7z M388.8,497H367c0.9-2.3,1.4-4.7,1.6-7.2l6.2-112.2c0.4-6.4-2-12.8-6.4-17.5
			c-1-1.1-2.1-2-3.3-2.9l21.8-27.3c4,6.5,6.1,14.2,5.9,22.2L388.8,497z"/>
	</g>
</g>
<g>
	<g>
		<linearGradient id="SVGID_2_" gradientUnits="userSpaceOnUse" x1="269.7679" y1="412.5164" x2="242.2321" y2="460.2099">
			<stop  offset="0" style="stop-color:#3FD1FF"/>
			<stop  offset="1" style="stop-color:#0088FF"/>
		</linearGradient>
		<path class="st1" d="M256,408.8c-15.2,0-27.5,12.4-27.5,27.5c0,15.2,12.4,27.5,27.5,27.5c15.2,0,27.5-12.4,27.5-27.5
			S271.2,408.8,256,408.8z M256,448.9c-6.9,0-12.5-5.6-12.5-12.5s5.6-12.5,12.5-12.5c6.9,0,12.5,5.6,12.5,12.5
			C268.5,443.3,262.9,448.9,256,448.9z"/>
	</g>
</g>
</svg>
